<?xml version="1.0" encoding="UTF-8" standalone="no"?>
<!-- Generator: Adobe Illustrator 22.1.0, SVG Export Plug-In . SVG Version: 6.00 Build 0)  -->

<svg
   version="1.1"
   id="Objects"
   x="0px"
   y="0px"
   viewBox="0 0 87.599998 35.200001"
   xml:space="preserve"
   sodipodi:docname="urbe-logo-white.svg"
   width="87.599998"
   height="35.200001"
   inkscape:version="1.1.2 (0a00cf5339, 2022-02-04)"
   xmlns:inkscape="http://www.inkscape.org/namespaces/inkscape"
   xmlns:sodipodi="http://sodipodi.sourceforge.net/DTD/sodipodi-0.dtd"
   xmlns="http://www.w3.org/2000/svg"
   xmlns:svg="http://www.w3.org/2000/svg"><defs
   id="defs45" /><sodipodi:namedview
   id="namedview43"
   pagecolor="#ffffff"
   bordercolor="#666666"
   borderopacity="1.0"
   inkscape:pageshadow="2"
   inkscape:pageopacity="0.0"
   inkscape:pagecheckerboard="0"
   showgrid="false"
   width="82.6px"
   scale-x="1"
   inkscape:zoom="15.520581"
   inkscape:cx="29.60585"
   inkscape:cy="16.107644"
   inkscape:window-width="1920"
   inkscape:window-height="1011"
   inkscape:window-x="0"
   inkscape:window-y="32"
   inkscape:window-maximized="1"
   inkscape:current-layer="Objects" />
<style
   type="text/css"
   id="style2">
	.st0{fill:#FFFFFF;}
</style>
<g
   id="g40"
   style="fill:#073260;fill-opacity:1"
   transform="translate(2.4999992,1.5500004)">
	<g
   id="g26"
   style="fill:#073260;fill-opacity:1">
		<g
   id="g24"
   style="fill:#073260;fill-opacity:1">
			<path
   class="st0"
   d="m 8.4,25.2 c -0.7,0 -0.9,0.2 -0.9,0.9 V 29 c 0,0.9 -0.1,1.6 -0.4,2.1 C 6.7,31.6 6,32 5.1,32 4.4,32 3.8,31.9 3.3,31.5 2.7,31 2.5,30.4 2.5,29.1 V 26 C 2.5,25.3 2.4,25.2 1.6,25.2 V 25 c 0.3,0 0.8,0 1.4,0 0.5,0 1,0 1.4,0 v 0.2 c -0.7,0 -0.9,0.1 -0.9,0.8 v 3.2 c 0,1.3 0.2,2.4 1.7,2.4 1.6,0 2.1,-1.1 2.1,-2.5 V 26 c 0,-0.7 -0.2,-0.9 -1,-0.9 V 25 c 0.3,0 0.7,0 1.1,0 0.4,0 0.8,0 1,0 z"
   id="path4"
   style="fill:#073260;fill-opacity:1" />
			<path
   class="st0"
   d="m 18,25.2 c -0.7,0 -0.9,0.2 -0.9,0.9 V 32 h -0.2 l -4.5,-6.4 v 5.2 c 0,0.7 0.1,0.9 1,0.9 v 0.2 c -0.3,0 -0.7,0 -1.1,0 -0.4,0 -0.8,0 -1,0 v -0.2 c 0.7,0 0.9,-0.2 0.9,-0.9 V 26 c 0,-0.7 -0.1,-0.8 -0.9,-0.8 V 25 c 0.2,0 0.6,0 1,0 0.3,0 0.6,0 0.8,0 l 3.8,5.3 v -4.2 c 0,-0.7 -0.1,-0.9 -1,-0.9 V 25 c 0.3,0 0.7,0 1.1,0 0.4,0 0.8,0 1,0 z"
   id="path6"
   style="fill:#073260;fill-opacity:1" />
			<path
   class="st0"
   d="m 23.8,25.2 c -0.7,0 -0.9,0.1 -0.9,0.8 v 4.9 c 0,0.7 0.1,0.8 0.9,0.8 v 0.2 c -0.3,0 -0.9,0 -1.4,0 -0.6,0 -1.1,0 -1.4,0 v -0.2 c 0.7,0 0.9,-0.1 0.9,-0.8 V 26 c 0,-0.7 -0.1,-0.8 -0.9,-0.8 V 25 c 0.3,0 0.8,0 1.4,0 0.5,0 1,0 1.4,0 z"
   id="path8"
   style="fill:#073260;fill-opacity:1" />
			<path
   class="st0"
   d="m 33.3,25 v 0.2 c -0.3,0.1 -0.6,0.3 -0.9,0.9 L 29.9,32 h -0.1 c 0,0 -0.1,0 -0.1,0 L 27.1,25.8 C 26.9,25.3 26.6,25.2 26.4,25.2 V 25 c 0.3,0 0.7,0 1.2,0 0.6,0 1.1,0 1.4,0 v 0.2 c -0.5,0 -0.8,0.1 -0.8,0.4 0,0.1 0,0.3 0.1,0.5 l 2,4.7 1.8,-4.1 c 0.1,-0.3 0.2,-0.6 0.2,-0.8 0,-0.4 -0.3,-0.6 -0.9,-0.6 V 25 c 0.4,0 0.9,0 1.2,0 0.2,0 0.5,0 0.7,0 z"
   id="path10"
   style="fill:#073260;fill-opacity:1" />
			<path
   class="st0"
   d="m 41.4,31.9 c -0.7,0 -1.7,0 -2.5,0 -0.6,0 -2.1,0 -3.1,0 v -0.2 c 0.7,0 0.9,-0.1 0.9,-0.8 V 26 c 0,-0.7 -0.1,-0.8 -0.9,-0.8 V 25 c 1.1,0 2.5,0 3.1,0 0.7,0 1.6,0 2.3,0 -0.1,0.5 -0.1,0.9 -0.1,1.2 0,0.2 0,0.5 0,0.6 h -0.2 c -0.1,-1.2 -0.3,-1.5 -1.4,-1.5 h -0.9 c -0.7,0 -0.9,0.1 -0.9,0.8 v 2.3 h 0.7 c 0.9,0 0.9,-0.8 1,-1.3 h 0.2 c 0,0.4 0,0.7 0,0.9 0,0.2 0,0.3 0,0.5 0,0.3 0,0.6 0.1,1.4 h -0.2 c -0.1,-0.6 -0.1,-1.3 -1,-1.3 H 37.8 V 31 c 0,0.7 0.1,0.8 0.9,0.8 h 0.8 c 1.3,0 1.6,-0.4 1.8,-1.7 h 0.2 c 0,0.2 0,0.4 0,0.7 -0.2,0.1 -0.2,0.7 -0.1,1.1 z"
   id="path12"
   style="fill:#073260;fill-opacity:1" />
			<path
   class="st0"
   d="m 51.2,31.5 c -0.3,0.4 -0.6,0.6 -1.2,0.6 -0.5,0 -1,-0.2 -1.2,-1.1 l -0.2,-1 c -0.2,-0.8 -0.4,-1.4 -1.2,-1.4 h -1 v 2.3 c 0,0.7 0.1,0.8 0.9,0.8 v 0.2 c -0.3,0 -0.9,0 -1.4,0 -0.6,0 -1.1,0 -1.4,0 v -0.2 c 0.7,0 0.9,-0.1 0.9,-0.8 V 26 c 0,-0.7 -0.1,-0.8 -0.9,-0.8 V 25 c 0.3,0 0.8,0 1.3,0 0.7,0 1.4,0 1.6,0 1.7,0 2.6,0.7 2.6,1.7 0,0.7 -0.5,1.7 -2.1,1.9 H 48 c 1,0.1 1.3,0.5 1.5,1.3 l 0.3,1 c 0.1,0.6 0.3,0.8 0.6,0.8 0.3,0 0.4,-0.1 0.6,-0.4 z m -4.8,-5.4 v 2.4 h 0.7 c 1.5,0 1.9,-0.7 1.9,-1.6 0,-1 -0.5,-1.6 -1.8,-1.6 -0.7,-0.1 -0.8,0.1 -0.8,0.8 z"
   id="path14"
   style="fill:#073260;fill-opacity:1" />
			<path
   class="st0"
   d="m 57.3,25.3 c 0.2,0.1 0.3,0.1 0.4,0.1 0.1,0 0.2,-0.1 0.2,-0.4 h 0.2 c 0,0.3 -0.1,0.8 -0.1,2 h -0.2 c -0.1,-0.9 -0.6,-1.9 -1.8,-1.9 -0.8,0 -1.3,0.5 -1.3,1.1 0,0.9 0.8,1.2 1.8,1.8 1.1,0.6 1.9,1.2 1.9,2.2 0,1.2 -1,1.9 -2.3,1.9 -0.8,0 -1.2,-0.2 -1.5,-0.4 -0.2,-0.1 -0.3,-0.1 -0.4,-0.1 -0.1,0 -0.2,0.1 -0.2,0.4 h -0.2 c 0,-0.4 0,-1 0,-2.3 H 54 c 0.1,1.2 0.6,2.2 2,2.2 0.7,0 1.4,-0.4 1.4,-1.3 0,-0.8 -0.7,-1.2 -1.7,-1.8 -1,-0.6 -1.9,-1.1 -1.9,-2.2 0,-1.2 1,-1.7 2,-1.7 0.9,0 1.2,0.2 1.5,0.4 z"
   id="path16"
   style="fill:#073260;fill-opacity:1" />
			<path
   class="st0"
   d="m 64.4,25.2 c -0.7,0 -0.9,0.1 -0.9,0.8 v 4.9 c 0,0.7 0.1,0.8 0.9,0.8 v 0.2 c -0.3,0 -0.9,0 -1.4,0 -0.6,0 -1.1,0 -1.4,0 v -0.2 c 0.7,0 0.9,-0.1 0.9,-0.8 V 26 c 0,-0.7 -0.1,-0.8 -0.9,-0.8 V 25 c 0.3,0 0.8,0 1.4,0 0.5,0 1,0 1.4,0 z"
   id="path18"
   style="fill:#073260;fill-opacity:1" />
			<path
   class="st0"
   d="m 73.3,26.3 c 0,0.3 0,0.6 0,0.8 h -0.2 c -0.2,-1.4 -0.3,-1.8 -1.7,-1.8 h -0.6 v 5.6 c 0,0.8 0.2,0.9 1.1,0.9 V 32 c -0.4,0 -1,0 -1.6,0 -0.6,0 -1.3,0 -1.6,0 v -0.2 c 0.9,0 1.1,-0.1 1.1,-0.9 v -5.6 h -0.6 c -1.3,0 -1.5,0.5 -1.7,1.8 h -0.2 c 0,-0.2 0,-0.5 0,-0.8 0,-0.2 0,-0.8 -0.1,-1.3 0.9,0 2.2,0 3,0 0.9,0 2.1,0 3,0 0.1,0.5 0.1,1 0.1,1.3 z"
   id="path20"
   style="fill:#073260;fill-opacity:1" />
			<path
   class="st0"
   d="m 82.2,25 v 0.2 c -0.3,0.1 -0.5,0.3 -0.9,0.9 l -1.7,3 v 1.8 c 0,0.7 0.1,0.8 0.9,0.8 v 0.2 c -0.3,0 -0.9,0 -1.4,0 -0.6,0 -1.1,0 -1.4,0 v -0.2 c 0.7,0 0.9,-0.1 0.9,-0.8 V 29.4 L 76.4,25.7 C 76.1,25.2 75.9,25.2 75.8,25.2 V 25 c 0.3,0 0.6,0 0.9,0 0.5,0 1,0 1.5,0 v 0.2 c -0.4,0 -0.8,0.1 -0.8,0.4 0,0.1 0,0.2 0.1,0.3 l 1.8,3.1 1.4,-2.5 C 80.9,26.1 81,25.9 81,25.7 81,25.3 80.6,25.2 80,25.2 V 25 c 0.4,0 0.9,0 1.2,0 0.5,0 0.7,0 1,0 z"
   id="path22"
   style="fill:#073260;fill-opacity:1" />
		</g>
	</g>
	<g
   id="g38"
   style="fill:#073260;fill-opacity:1">
		<g
   id="g36"
   style="fill:#073260;fill-opacity:1">
			<path
   class="st0"
   d="m 19.7,18.3 -3.8,3.5 H 5.3 L 1.5,18.3 V 4.9 H 0 V 0 H 9.5 V 4.9 H 8.1 v 11.3 l 0.8,0.7 h 3.5 l 0.8,-0.7 V 4.9 H 11.8 V 0 h 9.5 v 4.9 h -1.4 v 13.4 z"
   id="path28"
   style="fill:#073260;fill-opacity:1" />
			<path
   class="st0"
   d="m 30.8,16.9 h 1.4 v 4.9 h -9.5 v -4.9 h 1.4 V 4.9 H 22.7 V 0 h 14.9 l 3.8,3.5 v 5.6 l -1.6,1.4 1.6,1.4 v 5 H 43 v 4.9 H 34.9 V 13.7 L 34.1,13 h -3.3 z m 0,-8.8 h 3.3 L 34.9,7.4 V 5.6 L 34.1,4.9 h -3.3 z"
   id="path30"
   style="fill:#073260;fill-opacity:1" />
			<path
   class="st0"
   d="m 63.3,12 v 6.4 l -3.8,3.5 H 44.6 V 17 H 46 V 5 H 44.6 V 0 h 14.9 l 3.8,3.5 v 5.6 l -1.6,1.4 z M 56.7,5.6 55.9,4.9 H 52.6 V 8 h 3.3 l 0.8,-0.7 z m 0,8.1 -0.8,-0.7 h -3.3 v 3.9 h 3.3 l 0.8,-0.7 z"
   id="path32"
   style="fill:#073260;fill-opacity:1" />
			<path
   class="st0"
   d="M 77.2,13.4 H 73 v 3.5 h 4.2 V 16 h 5.4 v 5.8 H 64.9 v -4.9 h 1.4 V 4.9 H 64.9 V 0 H 82.6 V 5.8 H 77.2 V 4.9 H 73 v 3.5 h 4.2"
   id="path34"
   style="fill:#073260;fill-opacity:1" />
		</g>
	</g>
</g>
</svg>
